@startuml
interface  ApplicationClientProtocol
class ClientRMService
ApplicationClientProtocol <|--  ClientRMService

interface "ApplicationClientProtocolService.BlockingInterface"
interface ApplicationClientProtocolPB
interface BlockingService
"ApplicationClientProtocolService.BlockingInterface" <|-- ApplicationClientProtocolPB
BlockingService *-- "ApplicationClientProtocolService.BlockingInterface"

class ApplicationClientProtocolPBServiceImpl {
    ApplicationClientProtocol real
}
ApplicationClientProtocolPB <|-- ApplicationClientProtocolPBServiceImpl
@enduml
